{
  "accessors": [
    {
      "bufferView": 2,
      "componentType": 5126,
      "count": 201,
      "max": [
        152.62153625488281,
        128.45979309082031,
        153.16972351074219
      ],
      "min": [
        97.626693725585938,
        73.422409057617188,
        125.6656494140625
      ],
      "type": "VEC3"
    },
    {
      "bufferView": 2,
      "byteOffset": 2412,
      "componentType": 5126,
      "count": 201,
      "max": [
        0.99704664945602417,
        0.99646174907684326,
        1
      ],
      "min": [
        -0.99685114622116089,
        -0.99686145782470703,
        0.069250002503395081
      ],
      "type": "VEC3"
    },
    {
      "bufferView": 3,
      "componentType": 5126,
      "count": 201,
      "max": [
        1,
        0.21937830746173859,
        0.99622434377670288,
        1
      ],
      "min": [
        0.068429276347160339,
        -0.17409490048885345,
        -0.99756568670272827,
        1
      ],
      "type": "VEC4"
    },
    {
      "bufferView": 1,
      "componentType": 5126,
      "count": 201,
      "max": [
        0.32560300827026367,
        0.93134701251983643
      ],
      "min": [
        0.0019920000340789557,
        0.60773599147796631
      ],
      "type": "VEC2"
    },
    {
      "bufferView": 0,
      "componentType": 5125,
      "count": 1140,
      "max": [
        200
      ],
      "min": [
        0
      ],
      "type": "SCALAR"
    },
    {
      "bufferView": 2,
      "byteOffset": 4824,
      "componentType": 5126,
      "count": 4,
      "max": [
        163.91314697265625,
        138.81159973144531,
        154.26762390136719
      ],
      "min": [
        86.111862182617188,
        61.01031494140625,
        154.26762390136719
      ],
      "type": "VEC3"
    },
    {
      "bufferView": 2,
      "byteOffset": 4872,
      "componentType": 5126,
      "count": 4,
      "max": [
        0,
        -0,
        1
      ],
      "min": [
        0,
        -0,
        1
      ],
      "type": "VEC3"
    },
    {
      "bufferView": 3,
      "byteOffset": 3216,
      "componentType": 5126,
      "count": 4,
      "max": [
        1,
        0,
        0,
        1
      ],
      "min": [
        1,
        0,
        0,
        1
      ],
      "type": "VEC4"
    },
    {
      "bufferView": 1,
      "byteOffset": 1608,
      "componentType": 5126,
      "count": 4,
      "max": [
        1,
        1
      ],
      "min": [
        0,
        0
      ],
      "type": "VEC2"
    },
    {
      "bufferView": 0,
      "byteOffset": 4560,
      "componentType": 5125,
      "count": 6,
      "max": [
        3
      ],
      "min": [
        0
      ],
      "type": "SCALAR"
    },
    {
      "bufferView": 2,
      "byteOffset": 4920,
      "componentType": 5126,
      "count": 995,
      "max": [
        219.28683471679688,
        208.28094482421875,
        155.93974304199219
      ],
      "min": [
        23.287376403808594,
        0,
        0
      ],
      "type": "VEC3"
    },
    {
      "bufferView": 2,
      "byteOffset": 16860,
      "componentType": 5126,
      "count": 995,
      "max": [
        0.99482697248458862,
        0.99957650899887085,
        0.99993336200714111
      ],
      "min": [
        -0.99863135814666748,
        -0.99661076068878174,
        -0.99873751401901245
      ],
      "type": "VEC3"
    },
    {
      "bufferView": 3,
      "byteOffset": 3280,
      "componentType": 5126,
      "count": 995,
      "max": [
        0.99368160963058472,
        0.99928992986679077,
        0.99882376194000244,
        1
      ],
      "min": [
        -0.99918609857559204,
        -0.99817955493927002,
        -0.99990081787109375,
        -1
      ],
      "type": "VEC4"
    },
    {
      "bufferView": 1,
      "byteOffset": 1640,
      "componentType": 5126,
      "count": 995,
      "max": [
        0.99800801277160645,
        0.8574489951133728
      ],
      "min": [
        0.0019920000340789557,
        0.001858999952673912
      ],
      "type": "VEC2"
    },
    {
      "bufferView": 0,
      "byteOffset": 4584,
      "componentType": 5125,
      "count": 5064,
      "max": [
        994
      ],
      "min": [
        0
      ],
      "type": "SCALAR"
    },
    {
      "bufferView": 2,
      "byteOffset": 28800,
      "componentType": 5126,
      "count": 1333,
      "max": [
        225.671630859375,
        126.67376708984375,
        160.9930419921875
      ],
      "min": [
        0,
        64.879905700683594,
        75.515304565429688
      ],
      "type": "VEC3"
    },
    {
      "bufferView": 2,
      "byteOffset": 44796,
      "componentType": 5126,
      "count": 1333,
      "max": [
        0.99693113565444946,
        0.99808526039123535,
        0.99977999925613403
      ],
      "min": [
        -0.99693113565444946,
        -0.99865323305130005,
        -0.99959087371826172
      ],
      "type": "VEC3"
    },
    {
      "bufferView": 3,
      "byteOffset": 19200,
      "componentType": 5126,
      "count": 1333,
      "max": [
        0.9999580979347229,
        0.99852335453033447,
        0.99691182374954224,
        1
      ],
      "min": [
        -0.96213936805725098,
        -0.99852335453033447,
        -0.99598503112792969,
        1
      ],
      "type": "VEC4"
    },
    {
      "bufferView": 1,
      "byteOffset": 9600,
      "componentType": 5126,
      "count": 1333,
      "max": [
        0.99800801277160645,
        0.93353497982025146
      ],
      "min": [
        0.0019920000340789557,
        0.0018629999831318855
      ],
      "type": "VEC2"
    },
    {
      "bufferView": 0,
      "byteOffset": 24840,
      "componentType": 5125,
      "count": 5220,
      "max": [
        1332
      ],
      "min": [
        0
      ],
      "type": "SCALAR"
    },
    {
      "bufferView": 2,
      "byteOffset": 60792,
      "componentType": 5126,
      "count": 108,
      "max": [
        175.77067565917969,
        154.01124572753906,
        186.00112915039062
      ],
      "min": [
        96.880233764648438,
        37.220882415771484,
        145.484130859375
      ],
      "type": "VEC3"
    },
    {
      "bufferView": 2,
      "byteOffset": 62088,
      "componentType": 5126,
      "count": 108,
      "max": [
        0.56723994016647339,
        0.87484115362167358,
        0.86874485015869141
      ],
      "min": [
        -0.49380981922149658,
        -0.78646731376647949,
        0.48339313268661499
      ],
      "type": "VEC3"
    },
    {
      "bufferView": 3,
      "byteOffset": 40528,
      "componentType": 5126,
      "count": 108,
      "max": [
        0.98293018341064453,
        0.78048133850097656,
        0.76018393039703369,
        1
      ],
      "min": [
        -0.87496805191040039,
        -0.68001693487167358,
        -0.097482644021511078,
        1
      ],
      "type": "VEC4"
    },
    {
      "bufferView": 1,
      "byteOffset": 20264,
      "componentType": 5126,
      "count": 108,
      "max": [
        1,
        1
      ],
      "min": [
        0,
        0
      ],
      "type": "VEC2"
    },
    {
      "bufferView": 0,
      "byteOffset": 45720,
      "componentType": 5125,
      "count": 162,
      "max": [
        107
      ],
      "min": [
        0
      ],
      "type": "SCALAR"
    }
  ],
  "asset": {
    "extras": {
      "author": "AshleyLangridge (https://sketchfab.com/AshleyLangridge)",
      "license": "CC-BY-4.0 (http://creativecommons.org/licenses/by/4.0/)",
      "source": "https://sketchfab.com/models/ddff2e4c322b43ddb0d160b6ce0ba86c",
      "title": "Floating Island Podium"
    },
    "generator": "Sketchfab-3.20.7",
    "version": "2.0"
  },
  "bufferViews": [
    {
      "buffer": 0,
      "byteLength": 46368,
      "byteOffset": 0,
      "name": "floatBufferViews",
      "target": 34963
    },
    {
      "buffer": 0,
      "byteLength": 21128,
      "byteOffset": 46368,
      "byteStride": 8,
      "name": "floatBufferViews",
      "target": 34962
    },
    {
      "buffer": 0,
      "byteLength": 63384,
      "byteOffset": 67496,
      "byteStride": 12,
      "name": "floatBufferViews",
      "target": 34962
    },
    {
      "buffer": 0,
      "byteLength": 42256,
      "byteOffset": 130880,
      "byteStride": 16,
      "name": "floatBufferViews",
      "target": 34962
    }
  ],
  "buffers": [
    {
      "byteLength": 173136,
      "uri": "scene.bin"
    }
  ],
  "images": [
    {
      "uri": "textures/Pedestal_LangridgeAlambert2SG_baseColor.png"
    },
    {
      "uri": "textures/Pedestal_LangridgeAlambert3SG_baseColor.png"
    },
    {
      "uri": "textures/Pedestal_LangridgeAPodium_LangridgeAPodium_LangridgeAlambert7SG_baseColor.jpg"
    },
    {
      "uri": "textures/Pedestal_LangridgeAPodium_LangridgeAPodium_LangridgeAlambert6SG_baseColor.png"
    },
    {
      "uri": "textures/Pedestal_LangridgeAPodium_LangridgeAPodium_LangridgeAlambert3SG_baseColor.png"
    }
  ],
  "materials": [
    {
      "doubleSided": true,
      "emissiveFactor": [
        0,
        0,
        0
      ],
      "name": "Pedestal_LangridgeAPodium_LangridgeAPodium_LangridgeAlambert3SG",
      "pbrMetallicRoughness": {
        "baseColorFactor": [
          1,
          1,
          1,
          1
        ],
        "baseColorTexture": {
          "index": 4,
          "texCoord": 0
        },
        "metallicFactor": 0,
        "roughnessFactor": 0.59999999999999998
      }
    },
    {
      "doubleSided": true,
      "emissiveFactor": [
        0,
        0,
        0
      ],
      "name": "Pedestal_LangridgeAPodium_LangridgeAPodium_LangridgeAlambert6SG",
      "pbrMetallicRoughness": {
        "baseColorFactor": [
          1,
          1,
          1,
          1
        ],
        "baseColorTexture": {
          "index": 3,
          "texCoord": 0
        },
        "metallicFactor": 0,
        "roughnessFactor": 0.59999999999999998
      }
    },
    {
      "doubleSided": true,
      "emissiveFactor": [
        0,
        0,
        0
      ],
      "name": "Pedestal_LangridgeAPodium_LangridgeAPodium_LangridgeAlambert7SG",
      "pbrMetallicRoughness": {
        "baseColorFactor": [
          1,
          1,
          1,
          1
        ],
        "baseColorTexture": {
          "index": 2,
          "texCoord": 0
        },
        "metallicFactor": 0,
        "roughnessFactor": 0.59999999999999998
      }
    },
    {
      "alphaMode": "BLEND",
      "doubleSided": true,
      "emissiveFactor": [
        0,
        0,
        0
      ],
      "name": "Pedestal_LangridgeAlambert2SG",
      "pbrMetallicRoughness": {
        "baseColorFactor": [
          1,
          1,
          1,
          1
        ],
        "baseColorTexture": {
          "index": 0,
          "texCoord": 0
        },
        "metallicFactor": 0,
        "roughnessFactor": 0.59999999999999998
      }
    },
    {
      "alphaMode": "BLEND",
      "doubleSided": true,
      "emissiveFactor": [
        1,
        1,
        1
      ],
      "name": "Pedestal_LangridgeAlambert3SG",
      "pbrMetallicRoughness": {
        "baseColorFactor": [
          1,
          1,
          1,
          1
        ],
        "baseColorTexture": {
          "index": 1,
          "texCoord": 0
        },
        "metallicFactor": 0,
        "roughnessFactor": 0.59999999999999998
      }
    }
  ],
  "meshes": [
    {
      "primitives": [
        {
          "attributes": {
            "NORMAL": 1,
            "POSITION": 0,
            "TANGENT": 2,
            "TEXCOORD_0": 3
          },
          "indices": 4,
          "material": 2,
          "mode": 4
        }
      ]
    },
    {
      "primitives": [
        {
          "attributes": {
            "NORMAL": 6,
            "POSITION": 5,
            "TANGENT": 7,
            "TEXCOORD_0": 8
          },
          "indices": 9,
          "material": 3,
          "mode": 4
        }
      ]
    },
    {
      "primitives": [
        {
          "attributes": {
            "NORMAL": 11,
            "POSITION": 10,
            "TANGENT": 12,
            "TEXCOORD_0": 13
          },
          "indices": 14,
          "material": 0,
          "mode": 4
        }
      ]
    },
    {
      "primitives": [
        {
          "attributes": {
            "NORMAL": 16,
            "POSITION": 15,
            "TANGENT": 17,
            "TEXCOORD_0": 18
          },
          "indices": 19,
          "material": 1,
          "mode": 4
        }
      ]
    },
    {
      "primitives": [
        {
          "attributes": {
            "NORMAL": 21,
            "POSITION": 20,
            "TANGENT": 22,
            "TEXCOORD_0": 23
          },
          "indices": 24,
          "material": 4,
          "mode": 4
        }
      ]
    }
  ],
  "nodes": [
    {
      "children": [
        1
      ],
      "name": "RootNode (gltf orientation matrix)",
      "rotation": [
        -0.70710678118654746,
        -0,
        -0,
        0.70710678118654757
      ]
    },
    {
      "children": [
        2
      ],
      "name": "RootNode (model correction matrix)"
    },
    {
      "children": [
        3
      ],
      "matrix": [
        1,
        0,
        0,
        0,
        0,
        1,
        0,
        0,
        0,
        0,
        1,
        0,
        -125.01250457763672,
        -96.827804565429688,
        -100.6103515625,
        1
      ],
      "name": "8b5e4ac701db48c595d26a714db6c06a.obj.cleaner.materialmerger.gles"
    },
    {
      "children": [
        4,
        5,
        6,
        7,
        8
      ],
      "name": ""
    },
    {
      "mesh": 0,
      "name": ""
    },
    {
      "mesh": 1,
      "name": ""
    },
    {
      "mesh": 2,
      "name": ""
    },
    {
      "mesh": 3,
      "name": ""
    },
    {
      "mesh": 4,
      "name": ""
    }
  ],
  "samplers": [
    {
      "magFilter": 9729,
      "minFilter": 9987,
      "wrapS": 10497,
      "wrapT": 10497
    }
  ],
  "scene": 0,
  "scenes": [
    {
      "name": "OSG_Scene",
      "nodes": [
        0
      ]
    }
  ],
  "textures": [
    {
      "sampler": 0,
      "source": 0
    },
    {
      "sampler": 0,
      "source": 1
    },
    {
      "sampler": 0,
      "source": 2
    },
    {
      "sampler": 0,
      "source": 3
    },
    {
      "sampler": 0,
      "source": 4
    }
  ]
}

