{
  "accessors": [
    {
      "bufferView": 2,
      "componentType": 5126,
      "count": 65532,
      "max": [
        0.47493800520896912,
        0.0043100002221763134,
        0.99940800666809082
      ],
      "min": [
        -0.48388400673866272,
        -0.1870419979095459,
        0.55602598190307617
      ],
      "type": "VEC3"
    },
    {
      "bufferView": 2,
      "byteOffset": 786384,
      "componentType": 5126,
      "count": 65532,
      "max": [
        0.99837982654571533,
        0.99994117021560669,
        0.99999463558197021
      ],
      "min": [
        -0.99525868892669678,
        -0.99688065052032471,
        -0.99994677305221558
      ],
      "type": "VEC3"
    },
    {
      "bufferView": 3,
      "componentType": 5126,
      "count": 65532,
      "max": [
        0.99999284744262695,
        0.99997550249099731,
        0.99997389316558838,
        1
      ],
      "min": [
        -0.99998736381530762,
        -0.99975967407226562,
        -0.99996459484100342,
        1
      ],
      "type": "VEC4"
    },
    {
      "bufferView": 1,
      "componentType": 5126,
      "count": 65532,
      "max": [
        0.99951201677322388,
        0.99951201677322388
      ],
      "min": [
        0.00048799999058246613,
        0.012048999778926373
      ],
      "type": "VEC2"
    },
    {
      "bufferView": 0,
      "componentType": 5125,
      "count": 65532,
      "max": [
        65531
      ],
      "min": [
        0
      ],
      "type": "SCALAR"
    },
    {
      "bufferView": 2,
      "byteOffset": 1572768,
      "componentType": 5126,
      "count": 65532,
      "max": [
        0.60971802473068237,
        -0.17146599292755127,
        0.93145698308944702
      ],
      "min": [
        -0.63795799016952515,
        -0.34859699010848999,
        0.45755699276924133
      ],
      "type": "VEC3"
    },
    {
      "bufferView": 2,
      "byteOffset": 2359152,
      "componentType": 5126,
      "count": 65532,
      "max": [
        0.98408001661300659,
        0.99915575981140137,
        0.99989813566207886
      ],
      "min": [
        -0.99922972917556763,
        -0.99942308664321899,
        -0.99998974800109863
      ],
      "type": "VEC3"
    },
    {
      "bufferView": 3,
      "byteOffset": 1048512,
      "componentType": 5126,
      "count": 65532,
      "max": [
        0.99999707937240601,
        0.99991625547409058,
        0.99995636940002441,
        1
      ],
      "min": [
        -0.99997925758361816,
        -0.99991625547409058,
        -0.99998760223388672,
        1
      ],
      "type": "VEC4"
    },
    {
      "bufferView": 1,
      "byteOffset": 524256,
      "componentType": 5126,
      "count": 65532,
      "max": [
        0.99951201677322388,
        0.99951201677322388
      ],
      "min": [
        0.00048799999058246613,
        0.0062690000049769878
      ],
      "type": "VEC2"
    },
    {
      "bufferView": 0,
      "byteOffset": 262128,
      "componentType": 5125,
      "count": 65532,
      "max": [
        65531
      ],
      "min": [
        0
      ],
      "type": "SCALAR"
    },
    {
      "bufferView": 2,
      "byteOffset": 3145536,
      "componentType": 5126,
      "count": 65532,
      "max": [
        0.74055498838424683,
        -0.33392798900604248,
        0.83733898401260376
      ],
      "min": [
        -0.71869897842407227,
        -0.49350899457931519,
        0.35647600889205933
      ],
      "type": "VEC3"
    },
    {
      "bufferView": 2,
      "byteOffset": 3931920,
      "componentType": 5126,
      "count": 65532,
      "max": [
        0.99991029500961304,
        0.9992406964302063,
        0.99992227554321289
      ],
      "min": [
        -0.99946123361587524,
        -0.99927049875259399,
        -0.9997258186340332
      ],
      "type": "VEC3"
    },
    {
      "bufferView": 3,
      "byteOffset": 2097024,
      "componentType": 5126,
      "count": 65532,
      "max": [
        0.99998730421066284,
        0.99974781274795532,
        0.99986672401428223,
        1
      ],
      "min": [
        -0.99999779462814331,
        -0.99973839521408081,
        -0.99999505281448364,
        1
      ],
      "type": "VEC4"
    },
    {
      "bufferView": 1,
      "byteOffset": 1048512,
      "componentType": 5126,
      "count": 65532,
      "max": [
        0.99951201677322388,
        0.99951201677322388
      ],
      "min": [
        0.00048799999058246613,
        0.0062690000049769878
      ],
      "type": "VEC2"
    },
    {
      "bufferView": 0,
      "byteOffset": 524256,
      "componentType": 5125,
      "count": 65532,
      "max": [
        65531
      ],
      "min": [
        0
      ],
      "type": "SCALAR"
    },
    {
      "bufferView": 2,
      "byteOffset": 4718304,
      "componentType": 5126,
      "count": 65532,
      "max": [
        0.78199702501296997,
        -0.47803199291229248,
        0.74763298034667969
      ],
      "min": [
        -0.75431197881698608,
        -0.63155198097229004,
        0.26830199360847473
      ],
      "type": "VEC3"
    },
    {
      "bufferView": 2,
      "byteOffset": 5504688,
      "componentType": 5126,
      "count": 65532,
      "max": [
        0.99924963712692261,
        0.99992150068283081,
        0.99991124868392944
      ],
      "min": [
        -0.99956130981445312,
        -0.99852496385574341,
        -0.99958914518356323
      ],
      "type": "VEC3"
    },
    {
      "bufferView": 3,
      "byteOffset": 3145536,
      "componentType": 5126,
      "count": 65532,
      "max": [
        0.99999451637268066,
        0.99998188018798828,
        0.99989062547683716,
        1
      ],
      "min": [
        -0.99998366832733154,
        -0.9999346137046814,
        -0.99998646974563599,
        -1
      ],
      "type": "VEC4"
    },
    {
      "bufferView": 1,
      "byteOffset": 1572768,
      "componentType": 5126,
      "count": 65532,
      "max": [
        0.99951201677322388,
        0.99951201677322388
      ],
      "min": [
        0.00048799999058246613,
        0.0062690000049769878
      ],
      "type": "VEC2"
    },
    {
      "bufferView": 0,
      "byteOffset": 786384,
      "componentType": 5125,
      "count": 65532,
      "max": [
        65531
      ],
      "min": [
        0
      ],
      "type": "SCALAR"
    },
    {
      "bufferView": 2,
      "byteOffset": 6291072,
      "componentType": 5126,
      "count": 65532,
      "max": [
        0.79069197177886963,
        -0.61543500423431396,
        0.65983301401138306
      ],
      "min": [
        -0.75634998083114624,
        -0.76485598087310791,
        0.18860800564289093
      ],
      "type": "VEC3"
    },
    {
      "bufferView": 2,
      "byteOffset": 7077456,
      "componentType": 5126,
      "count": 65532,
      "max": [
        0.9999382495880127,
        0.9992339015007019,
        0.99950337409973145
      ],
      "min": [
        -0.99998986721038818,
        -0.99943315982818604,
        -0.99994158744812012
      ],
      "type": "VEC3"
    },
    {
      "bufferView": 3,
      "byteOffset": 4194048,
      "componentType": 5126,
      "count": 65532,
      "max": [
        0.99999892711639404,
        0.9999578595161438,
        0.99982279539108276,
        1
      ],
      "min": [
        -0.99999630451202393,
        -0.99994295835494995,
        -0.99989444017410278,
        1
      ],
      "type": "VEC4"
    },
    {
      "bufferView": 1,
      "byteOffset": 2097024,
      "componentType": 5126,
      "count": 65532,
      "max": [
        0.99951201677322388,
        0.99951201677322388
      ],
      "min": [
        0.00048799999058246613,
        0.0062690000049769878
      ],
      "type": "VEC2"
    },
    {
      "bufferView": 0,
      "byteOffset": 1048512,
      "componentType": 5125,
      "count": 65532,
      "max": [
        65531
      ],
      "min": [
        0
      ],
      "type": "SCALAR"
    },
    {
      "bufferView": 2,
      "byteOffset": 7863840,
      "componentType": 5126,
      "count": 65532,
      "max": [
        0.79260897636413574,
        -0.74848198890686035,
        0.57521897554397583
      ],
      "min": [
        -0.74678701162338257,
        -0.88728398084640503,
        0.12067200243473053
      ],
      "type": "VEC3"
    },
    {
      "bufferView": 2,
      "byteOffset": 8650224,
      "componentType": 5126,
      "count": 65532,
      "max": [
        0.99992060661315918,
        0.99976450204849243,
        0.99995559453964233
      ],
      "min": [
        -0.99993437528610229,
        -0.99992656707763672,
        -0.99987673759460449
      ],
      "type": "VEC3"
    },
    {
      "bufferView": 3,
      "byteOffset": 5242560,
      "componentType": 5126,
      "count": 65532,
      "max": [
        0.99996840953826904,
        0.9999997615814209,
        0.99997258186340332,
        1
      ],
      "min": [
        -0.99999028444290161,
        -0.99998098611831665,
        -0.99997144937515259,
        1
      ],
      "type": "VEC4"
    },
    {
      "bufferView": 1,
      "byteOffset": 2621280,
      "componentType": 5126,
      "count": 65532,
      "max": [
        0.99951201677322388,
        0.99373102188110352
      ],
      "min": [
        0.00048799999058246613,
        0.0062690000049769878
      ],
      "type": "VEC2"
    },
    {
      "bufferView": 0,
      "byteOffset": 1310640,
      "componentType": 5125,
      "count": 65532,
      "max": [
        65531
      ],
      "min": [
        0
      ],
      "type": "SCALAR"
    },
    {
      "bufferView": 2,
      "byteOffset": 9436608,
      "componentType": 5126,
      "count": 65532,
      "max": [
        0.7760540246963501,
        -0.87089997529983521,
        0.49662399291992188
      ],
      "min": [
        -0.7204049825668335,
        -1.0194059610366821,
        0.061099998652935028
      ],
      "type": "VEC3"
    },
    {
      "bufferView": 2,
      "byteOffset": 10222992,
      "componentType": 5126,
      "count": 65532,
      "max": [
        0.99949461221694946,
        0.99966353178024292,
        0.99995160102844238
      ],
      "min": [
        -0.99989360570907593,
        -0.99985593557357788,
        -0.99988383054733276
      ],
      "type": "VEC3"
    },
    {
      "bufferView": 3,
      "byteOffset": 6291072,
      "componentType": 5126,
      "count": 65532,
      "max": [
        0.9999886155128479,
        0.99993067979812622,
        0.99989968538284302,
        1
      ],
      "min": [
        -0.99998021125793457,
        -0.99998855590820312,
        -0.99990159273147583,
        1
      ],
      "type": "VEC4"
    },
    {
      "bufferView": 1,
      "byteOffset": 3145536,
      "componentType": 5126,
      "count": 65532,
      "max": [
        0.99951201677322388,
        0.99373102188110352
      ],
      "min": [
        0.00048799999058246613,
        0.0062690000049769878
      ],
      "type": "VEC2"
    },
    {
      "bufferView": 0,
      "byteOffset": 1572768,
      "componentType": 5125,
      "count": 65532,
      "max": [
        65531
      ],
      "min": [
        0
      ],
      "type": "SCALAR"
    },
    {
      "bufferView": 2,
      "byteOffset": 11009376,
      "componentType": 5126,
      "count": 65532,
      "max": [
        0.70923101902008057,
        -1.0037169456481934,
        0.41071900725364685
      ],
      "min": [
        -0.6588979959487915,
        -1.1679250001907349,
        0.013531999662518501
      ],
      "type": "VEC3"
    },
    {
      "bufferView": 2,
      "byteOffset": 11795760,
      "componentType": 5126,
      "count": 65532,
      "max": [
        0.99934989213943481,
        0.99879211187362671,
        0.99998825788497925
      ],
      "min": [
        -0.9991227388381958,
        -0.99852722883224487,
        -0.9999958872795105
      ],
      "type": "VEC3"
    },
    {
      "bufferView": 3,
      "byteOffset": 7339584,
      "componentType": 5126,
      "count": 65532,
      "max": [
        0.99999880790710449,
        0.99997925758361816,
        0.99994844198226929,
        1
      ],
      "min": [
        -0.99998342990875244,
        -0.99998253583908081,
        -0.99996644258499146,
        1
      ],
      "type": "VEC4"
    },
    {
      "bufferView": 1,
      "byteOffset": 3669792,
      "componentType": 5126,
      "count": 65532,
      "max": [
        0.99951201677322388,
        0.98795098066329956
      ],
      "min": [
        0.00048799999058246613,
        0.0062690000049769878
      ],
      "type": "VEC2"
    },
    {
      "bufferView": 0,
      "byteOffset": 1834896,
      "componentType": 5125,
      "count": 65532,
      "max": [
        65531
      ],
      "min": [
        0
      ],
      "type": "SCALAR"
    },
    {
      "bufferView": 2,
      "byteOffset": 12582144,
      "componentType": 5126,
      "count": 65532,
      "max": [
        0.59323400259017944,
        -1.152696967124939,
        0.31648001074790955
      ],
      "min": [
        -0.56943899393081665,
        -1.3634639978408813,
        -0.016530999913811684
      ],
      "type": "VEC3"
    },
    {
      "bufferView": 2,
      "byteOffset": 13368528,
      "componentType": 5126,
      "count": 65532,
      "max": [
        0.99993038177490234,
        0.99997526407241821,
        0.99997687339782715
      ],
      "min": [
        -0.99874657392501831,
        -0.99998658895492554,
        -0.9999958872795105
      ],
      "type": "VEC3"
    },
    {
      "bufferView": 3,
      "byteOffset": 8388096,
      "componentType": 5126,
      "count": 65532,
      "max": [
        0.99998849630355835,
        0.99999845027923584,
        0.99998646974563599,
        1
      ],
      "min": [
        -0.99998724460601807,
        -0.99999290704727173,
        -0.99999344348907471,
        1
      ],
      "type": "VEC4"
    },
    {
      "bufferView": 1,
      "byteOffset": 4194048,
      "componentType": 5126,
      "count": 65532,
      "max": [
        0.99951201677322388,
        0.98795098066329956
      ],
      "min": [
        0.00048799999058246613,
        0.0062690000049769878
      ],
      "type": "VEC2"
    },
    {
      "bufferView": 0,
      "byteOffset": 2097024,
      "componentType": 5125,
      "count": 65532,
      "max": [
        65531
      ],
      "min": [
        0
      ],
      "type": "SCALAR"
    },
    {
      "bufferView": 2,
      "byteOffset": 14154912,
      "componentType": 5126,
      "count": 10212,
      "max": [
        0.29988500475883484,
        -1.3517470359802246,
        0.18126900494098663
      ],
      "min": [
        -0.28339299559593201,
        -1.4104880094528198,
        0.046174000948667526
      ],
      "type": "VEC3"
    },
    {
      "bufferView": 2,
      "byteOffset": 14277456,
      "componentType": 5126,
      "count": 10212,
      "max": [
        0.99968284368515015,
        0.7951127290725708,
        0.99966567754745483
      ],
      "min": [
        -0.96841263771057129,
        -0.99991649389266968,
        -0.99572932720184326
      ],
      "type": "VEC3"
    },
    {
      "bufferView": 3,
      "byteOffset": 9436608,
      "componentType": 5126,
      "count": 10212,
      "max": [
        0.9999966025352478,
        0.99921607971191406,
        0.99994140863418579,
        1
      ],
      "min": [
        -0.99996918439865112,
        -0.99967104196548462,
        -0.99904441833496094,
        1
      ],
      "type": "VEC4"
    },
    {
      "bufferView": 1,
      "byteOffset": 4718304,
      "componentType": 5126,
      "count": 10212,
      "max": [
        0.99951201677322388,
        0.98795098066329956
      ],
      "min": [
        0.00048799999058246613,
        0.0062690000049769878
      ],
      "type": "VEC2"
    },
    {
      "bufferView": 0,
      "byteOffset": 2359152,
      "componentType": 5125,
      "count": 10212,
      "max": [
        10211
      ],
      "min": [
        0
      ],
      "type": "SCALAR"
    }
  ],
  "asset": {
    "extras": {
      "author": "Shiba Inu (https://sketchfab.com/shibainu)",
      "license": "CC-BY-NC-4.0 (http://creativecommons.org/licenses/by-nc/4.0/)",
      "source": "https://sketchfab.com/models/3d35e5be3f5e4561a7eaecf280e3105f",
      "title": "Chocolate chip cookie"
    },
    "generator": "Sketchfab-3.18.7",
    "version": "2.0"
  },
  "bufferViews": [
    {
      "buffer": 0,
      "byteLength": 2400000,
      "byteOffset": 0,
      "name": "floatBufferViews",
      "target": 34963
    },
    {
      "buffer": 0,
      "byteLength": 4800000,
      "byteOffset": 2400000,
      "byteStride": 8,
      "name": "floatBufferViews",
      "target": 34962
    },
    {
      "buffer": 0,
      "byteLength": 14400000,
      "byteOffset": 7200000,
      "byteStride": 12,
      "name": "floatBufferViews",
      "target": 34962
    },
    {
      "buffer": 0,
      "byteLength": 9600000,
      "byteOffset": 21600000,
      "byteStride": 16,
      "name": "floatBufferViews",
      "target": 34962
    }
  ],
  "buffers": [
    {
      "byteLength": 31200000,
      "uri": "scene.bin"
    }
  ],
  "extensionsUsed": [
    "KHR_materials_unlit"
  ],
  "images": [
    {
      "uri": "textures/material_0_baseColor.png"
    }
  ],
  "materials": [
    {
      "doubleSided": true,
      "emissiveFactor": [
        0,
        0,
        0
      ],
      "extensions": {
        "KHR_materials_unlit": {}
      },
      "name": "material_0",
      "pbrMetallicRoughness": {
        "baseColorFactor": [
          1,
          1,
          1,
          1
        ],
        "baseColorTexture": {
          "index": 0,
          "texCoord": 0
        },
        "metallicFactor": 0,
        "roughnessFactor": 1
      }
    }
  ],
  "meshes": [
    {
      "primitives": [
        {
          "attributes": {
            "NORMAL": 1,
            "POSITION": 0,
            "TANGENT": 2,
            "TEXCOORD_0": 3
          },
          "indices": 4,
          "material": 0,
          "mode": 4
        }
      ]
    },
    {
      "primitives": [
        {
          "attributes": {
            "NORMAL": 6,
            "POSITION": 5,
            "TANGENT": 7,
            "TEXCOORD_0": 8
          },
          "indices": 9,
          "material": 0,
          "mode": 4
        }
      ]
    },
    {
      "primitives": [
        {
          "attributes": {
            "NORMAL": 11,
            "POSITION": 10,
            "TANGENT": 12,
            "TEXCOORD_0": 13
          },
          "indices": 14,
          "material": 0,
          "mode": 4
        }
      ]
    },
    {
      "primitives": [
        {
          "attributes": {
            "NORMAL": 16,
            "POSITION": 15,
            "TANGENT": 17,
            "TEXCOORD_0": 18
          },
          "indices": 19,
          "material": 0,
          "mode": 4
        }
      ]
    },
    {
      "primitives": [
        {
          "attributes": {
            "NORMAL": 21,
            "POSITION": 20,
            "TANGENT": 22,
            "TEXCOORD_0": 23
          },
          "indices": 24,
          "material": 0,
          "mode": 4
        }
      ]
    },
    {
      "primitives": [
        {
          "attributes": {
            "NORMAL": 26,
            "POSITION": 25,
            "TANGENT": 27,
            "TEXCOORD_0": 28
          },
          "indices": 29,
          "material": 0,
          "mode": 4
        }
      ]
    },
    {
      "primitives": [
        {
          "attributes": {
            "NORMAL": 31,
            "POSITION": 30,
            "TANGENT": 32,
            "TEXCOORD_0": 33
          },
          "indices": 34,
          "material": 0,
          "mode": 4
        }
      ]
    },
    {
      "primitives": [
        {
          "attributes": {
            "NORMAL": 36,
            "POSITION": 35,
            "TANGENT": 37,
            "TEXCOORD_0": 38
          },
          "indices": 39,
          "material": 0,
          "mode": 4
        }
      ]
    },
    {
      "primitives": [
        {
          "attributes": {
            "NORMAL": 41,
            "POSITION": 40,
            "TANGENT": 42,
            "TEXCOORD_0": 43
          },
          "indices": 44,
          "material": 0,
          "mode": 4
        }
      ]
    },
    {
      "primitives": [
        {
          "attributes": {
            "NORMAL": 46,
            "POSITION": 45,
            "TANGENT": 47,
            "TEXCOORD_0": 48
          },
          "indices": 49,
          "material": 0,
          "mode": 4
        }
      ]
    }
  ],
  "nodes": [
    {
      "children": [
        1
      ],
      "name": "RootNode (gltf orientation matrix)",
      "rotation": [
        -0.70710678118654746,
        -0,
        -0,
        0.70710678118654757
      ]
    },
    {
      "children": [
        2
      ],
      "matrix": [
        0.96938210725784302,
        0.22706608474254608,
        -0.093484446406364441,
        0,
        0.20280341804027557,
        -0.52566391229629517,
        0.82616478204727173,
        0,
        0.13845258951187134,
        -0.81982827186584473,
        -0.5556190013885498,
        0,
        0.075103633105754852,
        -0.67390340566635132,
        1.3470536470413208,
        1
      ],
      "name": "RootNode (model correction matrix)"
    },
    {
      "children": [
        3,
        4,
        5,
        6,
        7,
        8,
        9,
        10,
        11,
        12
      ],
      "name": "mesh.obj.cleaner.materialmerger.gles"
    },
    {
      "mesh": 0,
      "name": ""
    },
    {
      "mesh": 1,
      "name": ""
    },
    {
      "mesh": 2,
      "name": ""
    },
    {
      "mesh": 3,
      "name": ""
    },
    {
      "mesh": 4,
      "name": ""
    },
    {
      "mesh": 5,
      "name": ""
    },
    {
      "mesh": 6,
      "name": ""
    },
    {
      "mesh": 7,
      "name": ""
    },
    {
      "mesh": 8,
      "name": ""
    },
    {
      "mesh": 9,
      "name": ""
    }
  ],
  "samplers": [
    {
      "magFilter": 9729,
      "minFilter": 9987,
      "wrapS": 10497,
      "wrapT": 10497
    }
  ],
  "scene": 0,
  "scenes": [
    {
      "name": "OSG_Scene",
      "nodes": [
        0
      ]
    }
  ],
  "textures": [
    {
      "sampler": 0,
      "source": 0
    }
  ]
}

